<svg width="48" height="48" viewBox="0 0 48 48" fill="none" xmlns="http://www.w3.org/2000/svg">
<path d="M44.4038 3.5962C45.4258 4.61856 46 6.00499 46 7.4506C46 8.89621 45.4258 10.2826 44.4038 11.305C45.5712 14.5655 45.8293 18.0823 45.1503 21.4783C44.4713 24.8743 42.8808 28.0215 40.5494 30.5824L34.7651 36.3613C33.7117 37.7048 32.9885 39.277 32.6537 40.9512C32.319 42.6253 32.3821 44.3547 32.8379 46L2 15.1648C3.64492 15.6202 5.37377 15.6831 7.04741 15.3483C8.72105 15.0136 10.2927 14.2906 11.636 13.2376L17.4176 7.4506C19.9785 5.11919 23.1257 3.52873 26.5217 2.84972C29.9177 2.17072 33.4345 2.42876 36.695 3.5962C37.7174 2.57416 39.1038 2 40.5494 2C41.995 2 43.3814 2.57416 44.4038 3.5962Z" stroke="#FF67A6" stroke-width="4" stroke-linecap="round" stroke-linejoin="round"/>
<path d="M11.6365 24.7986L9.70934 26.7258C8.17561 28.2595 7.31396 30.3397 7.31396 32.5087C7.31396 34.6778 8.17561 36.758 9.70934 38.2917C11.2431 39.8254 13.3233 40.6871 15.4923 40.6871C17.6613 40.6871 19.7415 39.8254 21.2753 38.2917L23.2025 36.3645" stroke="#FF67A6" stroke-width="4" stroke-linecap="round" stroke-linejoin="round"/>
</svg>
