<svg width="55" height="55" viewBox="0 0 55 55" fill="none" xmlns="http://www.w3.org/2000/svg">
<g clip-path="url(#clip0_75_153)">
<path d="M22.3438 44.6875C27.0985 44.6959 31.7307 43.1803 35.5609 40.3631H35.5575C35.6583 40.5006 35.7706 40.6324 35.8944 40.7584L49.1287 53.9928C49.7733 54.6378 50.6477 55.0004 51.5596 55.0007C52.4714 55.001 53.3461 54.6391 53.9911 53.9945C54.6361 53.35 54.9987 52.4756 54.999 51.5637C54.9993 50.6519 54.6374 49.7772 53.9928 49.1322L40.7584 35.8978C40.6356 35.7733 40.5034 35.6584 40.3631 35.5541C43.1789 31.7257 44.6945 27.0961 44.6875 22.3438C44.6875 16.4178 42.3334 10.7346 38.1432 6.54433C33.9529 2.35407 28.2697 0 22.3438 0C16.4178 0 10.7346 2.35407 6.54433 6.54433C2.35407 10.7346 0 16.4178 0 22.3438C0 28.2697 2.35407 33.9529 6.54433 38.1432C10.7346 42.3334 16.4178 44.6875 22.3438 44.6875ZM22.3438 15.4069C28.0637 9.65594 42.3672 19.7175 22.3438 32.6563C2.32031 19.7175 16.6238 9.65938 22.3438 15.4069Z" fill="#FF67A6"/>
</g>
<defs>
<clipPath id="clip0_75_153">
<rect width="55" height="55" fill="white"/>
</clipPath>
</defs>
</svg>
