<svg width="50" height="63" viewBox="0 0 50 63" fill="none" xmlns="http://www.w3.org/2000/svg">
<path d="M43.75 0H6.25C2.8125 0 0 2.8125 0 6.25V59.375C0 60.5 0.59375 61.5313 1.5625 62.0938C2.53125 62.6563 3.71875 62.6563 4.6875 62.0938L25 50.4688L45.3125 62.0938C45.7813 62.375 46.3125 62.5 46.875 62.5C47.4375 62.5 47.9687 62.375 48.4375 62.0938C49.4063 61.5313 50 60.5 50 59.375V6.25C50 2.8125 47.1875 0 43.75 0ZM43.75 25V54L26.5625 44.1875C26.0932 43.9129 25.5593 43.7681 25.0156 43.7681C24.4719 43.7681 23.938 43.9129 23.4688 44.1875L6.28125 54V6.25H43.7813V25H43.75Z" fill="#FF67A6"/>
<path d="M25.625 17.4687L25 18.0937L24.375 17.4687C21.9375 15.0313 18.0625 15.0313 15.625 17.4687C13.1875 19.9062 13.1875 23.7813 15.625 26.2188L25 35.5938L34.375 26.2188C36.8125 23.7813 36.8125 19.9062 34.375 17.4687C31.9375 15.0313 28.0625 15.0313 25.625 17.4687Z" fill="#FF67A6"/>
</svg>
