<svg width="50" height="62" viewBox="0 0 50 62" fill="none" xmlns="http://www.w3.org/2000/svg">
<path d="M43.75 0H6.25C2.8125 0 0 2.7893 0 6.19845V58.8853C0 60.001 0.59375 61.0237 1.5625 61.5816C2.53125 62.1395 3.71875 62.1395 4.6875 61.5816L25 50.0525L45.3125 61.5816C45.7813 61.8605 46.3437 61.9845 46.875 61.9845C47.4063 61.9845 47.9687 61.8605 48.4375 61.5816C49.4063 61.0237 50 60.001 50 58.8853V6.19845C50 2.7893 47.1875 0 43.75 0ZM34.375 26.0025L25 35.3002L15.625 26.0025C13.1875 23.5851 13.1875 19.7421 15.625 17.3247C18.0625 14.9073 21.9375 14.9073 24.375 17.3247L25 17.9445L25.625 17.3247C28.0625 14.9073 31.9375 14.9073 34.375 17.3247C36.8125 19.7421 36.8125 23.5851 34.375 26.0025Z" fill="#FF67A6"/>
</svg>
