<svg width="57" height="57" viewBox="0 0 57 57" fill="none" xmlns="http://www.w3.org/2000/svg">
<g clip-path="url(#clip0_200_63)">
<path d="M29.0429 18.4606L28.5 18.9675L27.9571 18.4606C25.8943 16.5131 22.61 16.5131 20.5471 18.4606C18.4843 20.4348 18.4843 23.5294 20.5471 25.4769L28.5 33L36.4529 25.4769C38.5157 23.5294 38.5157 20.4348 36.4529 18.4606C34.3629 16.5131 31.1057 16.5131 29.0429 18.4606Z" fill="#FF67A6"/>
<path d="M47.5 4.75H14.25C10.3313 4.75 7.125 7.95625 7.125 11.875V45.125C7.125 49.0437 10.3313 52.25 14.25 52.25H49.875V47.5H14.25C12.9437 47.5 11.875 46.4313 11.875 45.125C11.875 43.8187 12.9437 42.75 14.25 42.75H47.5C48.8063 42.75 49.875 41.6813 49.875 40.375V7.125C49.875 5.81875 48.8063 4.75 47.5 4.75ZM33.25 38H14.25C13.4188 38 12.6113 38.1663 11.875 38.4275V11.875C11.875 10.5687 12.9437 9.5 14.25 9.5H45.125V38H33.25Z" fill="#FF67A6"/>
</g>
<defs>
<clipPath id="clip0_200_63">
<rect width="57" height="57" fill="white"/>
</clipPath>
</defs>
</svg>
