<svg width="28" height="28" viewBox="0 0 28 28" fill="none" xmlns="http://www.w3.org/2000/svg">
<path d="M3.90413 25.174H24.0946C26.5321 25.174 27.7746 23.955 27.7746 21.541V9.27149C27.7746 6.85749 26.5321 5.65049 24.0946 5.65049H21.3526C20.4386 5.65049 20.1576 5.46299 19.6301 4.87699L18.6806 3.82199C18.1066 3.17799 17.5091 2.82599 16.2901 2.82599H11.6261C10.4191 2.82599 9.82113 3.17799 9.23563 3.82199L8.28613 4.87699C7.77063 5.45099 7.47763 5.65049 6.56363 5.65049H3.90363C1.46613 5.65049 0.223633 6.85749 0.223633 9.27149V21.541C0.223633 23.955 1.46663 25.174 3.90413 25.174ZM13.9936 21.424C10.4541 21.424 7.60663 18.576 7.60663 15.014C7.60663 11.451 10.4541 8.60399 13.9931 8.60399C17.5556 8.60399 20.3916 11.451 20.3916 15.014C20.3916 18.576 17.5441 21.424 13.9931 21.424M22.4186 12.154C21.6216 12.154 20.9656 11.51 20.9656 10.713C20.9656 10.3276 21.1187 9.95805 21.3912 9.68556C21.6637 9.41307 22.0333 9.25999 22.4186 9.25999C22.804 9.25999 23.1736 9.41307 23.4461 9.68556C23.7185 9.95805 23.8716 10.3276 23.8716 10.713C23.8716 11.51 23.2156 12.154 22.4186 12.154ZM13.9936 19.643C14.6017 19.6437 15.204 19.5245 15.7659 19.2921C16.3279 19.0597 16.8385 18.7188 17.2684 18.2888C17.6984 17.8588 18.0394 17.3482 18.2717 16.7863C18.5041 16.2243 18.6234 15.6221 18.6226 15.014C18.6233 14.4059 18.504 13.8037 18.2716 13.2418C18.0392 12.68 17.6982 12.1694 17.2683 11.7395C16.8383 11.3096 16.3277 10.9687 15.7658 10.7363C15.2039 10.504 14.6017 10.3848 13.9936 10.3855C11.4386 10.3855 9.37663 12.448 9.37663 15.014C9.37663 17.5805 11.4506 19.643 13.9936 19.643Z" fill="#FF67A6"/>
</svg>
