<svg width="28" height="28" viewBox="0 0 28 28" fill="none" xmlns="http://www.w3.org/2000/svg">
<path d="M3.90413 25.174H24.0946C26.5321 25.174 27.7746 23.955 27.7746 21.541V9.27149C27.7746 6.85749 26.5321 5.65049 24.0946 5.65049H21.3526C20.4386 5.65049 20.1576 5.46299 19.6301 4.87699L18.6806 3.82199C18.1066 3.17799 17.5091 2.82599 16.2901 2.82599H11.6261C10.4191 2.82599 9.82113 3.17799 9.23563 3.82199L8.28613 4.87699C7.77063 5.45099 7.47763 5.65049 6.56363 5.65049H3.90363C1.46613 5.65049 0.223633 6.85749 0.223633 9.27149V21.541C0.223633 23.955 1.46663 25.174 3.90413 25.174ZM3.93863 23.287C2.77863 23.287 2.11063 22.666 2.11063 21.447V9.37699C2.11063 8.15799 2.77863 7.53699 3.93863 7.53699H7.03213C8.08713 7.53699 8.64963 7.33799 9.23563 6.68199L10.1611 5.65049C10.8291 4.90049 11.1691 4.71299 12.2121 4.71299H15.7041C16.7471 4.71299 17.0871 4.90049 17.7551 5.65049L18.6806 6.68149C19.2666 7.33799 19.8291 7.53699 20.8841 7.53699H24.0596C25.2196 7.53699 25.8881 8.15799 25.8881 9.37699V21.447C25.8881 22.666 25.2201 23.287 24.0596 23.287H3.93863ZM13.9936 21.424C14.8355 21.4264 15.6695 21.2621 16.4476 20.9407C17.2257 20.6192 17.9325 20.147 18.5273 19.5511C19.122 18.9553 19.5929 18.2476 19.9129 17.4689C20.2329 16.6902 20.3956 15.8559 20.3916 15.014C20.3916 11.451 17.5556 8.60399 13.9931 8.60399C10.4541 8.60399 7.60663 11.451 7.60663 15.014C7.60663 18.576 10.4541 21.424 13.9931 21.424M22.4186 12.154C23.2156 12.154 23.8716 11.51 23.8716 10.713C23.8716 10.3276 23.7185 9.95805 23.4461 9.68556C23.1736 9.41307 22.804 9.25999 22.4186 9.25999C22.0333 9.25999 21.6637 9.41307 21.3912 9.68556C21.1187 9.95805 20.9656 10.3276 20.9656 10.713C20.9656 11.51 21.6216 12.154 22.4186 12.154ZM13.9936 19.643C11.4506 19.643 9.37663 17.5805 9.37663 15.014C9.37663 12.4475 11.4391 10.3855 13.9936 10.3855C14.6017 10.3848 15.2039 10.504 15.7658 10.7363C16.3277 10.9687 16.8383 11.3096 17.2683 11.7395C17.6982 12.1694 18.0392 12.68 18.2716 13.2418C18.504 13.8037 18.6233 14.4059 18.6226 15.014C18.6234 15.6221 18.5041 16.2243 18.2717 16.7863C18.0394 17.3482 17.6984 17.8588 17.2684 18.2888C16.8385 18.7188 16.3279 19.0597 15.7659 19.2921C15.204 19.5245 14.6017 19.6437 13.9936 19.643Z" fill="#FF67A6"/>
</svg>
