<svg width="53" height="53" viewBox="0 0 53 53" fill="none" xmlns="http://www.w3.org/2000/svg">
<path d="M52.5378 10.5179C52.3535 10.2975 52.1231 10.1201 51.8628 9.99845C51.6025 9.87678 51.3187 9.81374 51.0314 9.81379H11.4526L9.96093 1.61192C9.87877 1.15967 9.64049 0.750596 9.28763 0.456025C8.93478 0.161453 8.48973 6.64325e-05 8.03008 0H1.96274C1.44219 0 0.942961 0.20679 0.574875 0.574879C0.206789 0.942967 0 1.4422 0 1.96276C0 2.48331 0.206789 2.98255 0.574875 3.35064C0.942961 3.71873 1.44219 3.92552 1.96274 3.92552H6.37892L12.6499 38.3449C12.8346 39.3657 13.2857 40.3196 13.9576 41.11C13.0303 41.9761 12.361 43.0821 12.0239 44.3054C11.6868 45.5286 11.6951 46.8214 12.0479 48.0402C12.4006 49.259 13.0841 50.3564 14.0224 51.2105C14.9607 52.0646 16.1173 52.6422 17.3638 52.8791C18.6103 53.1161 19.8981 53.0032 21.0844 52.5529C22.2707 52.1027 23.3091 51.3326 24.0845 50.3282C24.8598 49.3238 25.3419 48.1243 25.4771 46.8627C25.6124 45.6011 25.3956 44.3266 24.8508 43.1807H35.9943C35.5552 44.1 35.328 45.1061 35.3294 46.1248C35.3294 47.4835 35.7323 48.8117 36.4871 49.9414C37.242 51.0711 38.3149 51.9516 39.5701 52.4716C40.8254 52.9915 42.2066 53.1275 43.5392 52.8625C44.8718 52.5974 46.0958 51.9431 47.0566 50.9824C48.0173 50.0217 48.6716 48.7976 48.9366 47.465C49.2017 46.1324 49.0656 44.7512 48.5457 43.4959C48.0258 42.2407 47.1453 41.1678 46.0156 40.4129C44.8859 39.6581 43.5577 39.2552 42.199 39.2552H18.4424C17.9828 39.2551 17.5377 39.0937 17.1849 38.7991C16.832 38.5046 16.5938 38.0955 16.5116 37.6433L15.7339 33.3669H44.1937C45.5726 33.3667 46.9077 32.8825 47.9663 31.9988C49.0249 31.1151 49.7397 29.8879 49.9862 28.5311L52.9696 12.1274C53.0201 11.8439 53.0076 11.5527 52.933 11.2746C52.8583 10.9964 52.7234 10.7381 52.5378 10.5179ZM21.5902 46.1248C21.5902 46.7071 21.4175 47.2763 21.094 47.7605C20.7705 48.2447 20.3107 48.622 19.7727 48.8448C19.2348 49.0677 18.6428 49.126 18.0717 49.0124C17.5006 48.8988 16.976 48.6184 16.5643 48.2066C16.1525 47.7949 15.8721 47.2703 15.7585 46.6992C15.6449 46.1281 15.7032 45.5361 15.9261 44.9982C16.1489 44.4602 16.5263 44.0004 17.0104 43.6769C17.4946 43.3534 18.0638 43.1807 18.6461 43.1807C19.4269 43.1807 20.1758 43.4909 20.7279 44.043C21.28 44.5951 21.5902 45.344 21.5902 46.1248ZM45.1431 46.1248C45.1431 46.7071 44.9705 47.2763 44.647 47.7605C44.3235 48.2447 43.8636 48.622 43.3257 48.8448C42.7877 49.0677 42.1958 49.126 41.6246 49.0124C41.0535 48.8988 40.529 48.6184 40.1172 48.2066C39.7055 47.7949 39.4251 47.2703 39.3115 46.6992C39.1979 46.1281 39.2562 45.5361 39.479 44.9982C39.7018 44.4602 40.0792 44.0004 40.5634 43.6769C41.0475 43.3534 41.6167 43.1807 42.199 43.1807C42.9798 43.1807 43.7287 43.4909 44.2808 44.043C44.8329 44.5951 45.1431 45.344 45.1431 46.1248ZM46.1245 27.8295C46.0421 28.283 45.8028 28.693 45.4484 28.9877C45.094 29.2824 44.6472 29.443 44.1863 29.4414H15.0199L12.1666 13.7393H48.6785L46.1245 27.8295Z" fill="#FF67A6"/>
</svg>
