<svg width="19" height="19" viewBox="0 0 19 19" fill="none" xmlns="http://www.w3.org/2000/svg">
<g clip-path="url(#clip0_740_4)">
<path d="M6.11934 0.912995C5.83359 0.222761 5.08027 -0.144622 4.36035 0.0520574L1.09473 0.942682C0.449023 1.12081 0 1.70714 0 2.3751C0 11.556 7.44414 19.0001 16.625 19.0001C17.293 19.0001 17.8793 18.5511 18.0574 17.9054L18.948 14.6398C19.1447 13.9198 18.7773 13.1665 18.0871 12.8808L14.5246 11.3964C13.9197 11.1441 13.2184 11.3185 12.8064 11.8269L11.3072 13.6564C8.69473 12.4206 6.57949 10.3054 5.34375 7.69288L7.17324 6.19737C7.68164 5.78175 7.85605 5.08409 7.60371 4.47921L6.11934 0.916706V0.912995Z" fill="#FF67A6"/>
</g>
<defs>
<clipPath id="clip0_740_4">
<rect width="19" height="19" fill="white"/>
</clipPath>
</defs>
</svg>
