<svg width="50" height="48" viewBox="0 0 50 48" fill="none" xmlns="http://www.w3.org/2000/svg">
<path d="M33.3751 12.85C31.2001 10.7 27.7251 10.7 25.5751 12.85L25.0251 13.4L24.4751 12.85C22.3001 10.7 18.8251 10.7 16.6751 12.85C14.5501 14.9 14.5001 18.25 16.5251 20.375L16.6751 20.525L25.0501 28.75L33.4251 20.525C35.5501 18.475 35.6001 15.125 33.5751 13L33.4251 12.85H33.3751Z" fill="#FF67A6"/>
<path d="M25 0C11.225 0 0 8.975 0 20C0 27.275 4.75 33.775 12.5 37.325V45C12.5 45.95 13.025 46.8 13.875 47.225C14.225 47.4 14.6 47.5 15 47.5C15.525 47.5 16.05 47.325 16.5 47L25.85 40C39.25 39.65 50 30.825 50 20C50 9.175 38.775 0 25 0ZM25 35C24.45 35 23.925 35.175 23.5 35.5L17.5 40V35.675C17.5 34.65 16.875 33.725 15.9 33.35C9.175 30.75 5 25.65 5 20C5 11.725 13.975 5 25 5C36.025 5 45 11.725 45 20C45 28.275 36.025 35 25 35Z" fill="#FF67A6"/>
</svg>
