<svg width="45" height="45" viewBox="0 0 45 45" fill="none" xmlns="http://www.w3.org/2000/svg">
<g clip-path="url(#clip0_200_72)">
<path d="M40.7812 22.5C40.7812 17.6515 38.8552 13.0016 35.4268 9.5732C31.9984 6.1448 27.3485 4.21875 22.5 4.21875C17.6515 4.21875 13.0016 6.1448 9.5732 9.5732C6.1448 13.0016 4.21875 17.6515 4.21875 22.5C4.21875 27.3485 6.1448 31.9984 9.5732 35.4268C13.0016 38.8552 17.6515 40.7812 22.5 40.7812C27.3485 40.7812 31.9984 38.8552 35.4268 35.4268C38.8552 31.9984 40.7812 27.3485 40.7812 22.5ZM0 22.5C0 16.5326 2.37053 10.8097 6.5901 6.5901C10.8097 2.37053 16.5326 0 22.5 0C28.4674 0 34.1903 2.37053 38.4099 6.5901C42.6295 10.8097 45 16.5326 45 22.5C45 28.4674 42.6295 34.1903 38.4099 38.4099C34.1903 42.6295 28.4674 45 22.5 45C16.5326 45 10.8097 42.6295 6.5901 38.4099C2.37053 34.1903 0 28.4674 0 22.5ZM26.9561 28.5732L14.2734 33.4512C12.5684 34.1104 10.8896 32.4316 11.5488 30.7266L16.4268 18.0439C16.7168 17.2969 17.2969 16.7168 18.0439 16.4268L30.7266 11.5488C32.4316 10.8896 34.1104 12.5684 33.4512 14.2734L28.5732 26.9561C28.292 27.7031 27.7031 28.2832 26.9561 28.5732ZM25.3125 22.5C25.3125 21.7541 25.0162 21.0387 24.4887 20.5113C23.9613 19.9838 23.2459 19.6875 22.5 19.6875C21.7541 19.6875 21.0387 19.9838 20.5113 20.5113C19.9838 21.0387 19.6875 21.7541 19.6875 22.5C19.6875 23.2459 19.9838 23.9613 20.5113 24.4887C21.0387 25.0162 21.7541 25.3125 22.5 25.3125C23.2459 25.3125 23.9613 25.0162 24.4887 24.4887C25.0162 23.9613 25.3125 23.2459 25.3125 22.5Z" fill="#FF67A6"/>
</g>
<defs>
<clipPath id="clip0_200_72">
<rect width="45" height="45" fill="white"/>
</clipPath>
</defs>
</svg>
