<svg width="30" height="30" viewBox="0 0 30 30" fill="none" xmlns="http://www.w3.org/2000/svg">
<g clip-path="url(#clip0_200_6)">
<path d="M22.3126 0.935634C23.057 0.329914 23.9873 -0.000793457 24.947 -0.000793457C25.9067 -0.000793457 26.837 0.329914 27.5814 0.935634C27.7501 1.07251 27.9301 1.25251 28.2901 1.61438C28.5266 1.84065 28.7531 2.07712 28.9689 2.32313C29.6139 3.11908 29.9443 4.12414 29.8973 5.14757C29.8503 6.171 29.4292 7.14155 28.7139 7.87501L28.2901 8.30251L21.5964 14.9963L28.2901 21.69L28.7139 22.1175C29.4302 22.8501 29.852 23.8205 29.899 24.8439C29.946 25.8674 29.615 26.8724 28.9689 27.6675C28.832 27.8363 28.652 28.0163 28.2901 28.3763C28.0639 28.6127 27.8274 28.8392 27.5814 29.055C26.0439 30.3038 23.8501 30.3038 22.3126 29.055C22.0647 28.8413 21.8281 28.6147 21.6039 28.3763L14.9101 21.6825L8.21639 28.3763C7.85639 28.7363 7.67264 28.9181 7.50576 29.055C6.76081 29.6594 5.83069 29.9893 4.87139 29.9893C3.91209 29.9893 2.98196 29.6594 2.23701 29.055C1.98908 28.8413 1.7525 28.6147 1.52826 28.3763C1.29181 28.15 1.06535 27.9135 0.849513 27.6675C0.243793 26.9232 -0.0869141 25.9928 -0.0869141 25.0331C-0.0869141 24.0735 0.243793 23.1431 0.849513 22.3988C0.986388 22.23 1.16639 22.05 1.52826 21.69L8.22201 14.9963L1.52826 8.30251C1.29177 8.07563 1.0653 7.83853 0.849513 7.59188C0.245112 6.84693 -0.0847504 5.91681 -0.0847504 4.95751C-0.0847504 3.99821 0.245112 3.06809 0.849513 2.32313C0.986388 2.15438 1.16639 1.97438 1.52826 1.61438C1.75453 1.37793 1.991 1.15147 2.23701 0.935634C2.98196 0.331233 3.91209 0.00137026 4.87139 0.00137026C5.83069 0.00137026 6.76081 0.331233 7.50576 0.935634C7.67451 1.07251 7.85639 1.25251 8.21639 1.61438L14.9101 8.30814L21.6039 1.61438C21.8302 1.37793 22.0666 1.15147 22.3126 0.935634Z" fill="#FF67A6"/>
</g>
<defs>
<clipPath id="clip0_200_6">
<rect width="30" height="30" fill="white"/>
</clipPath>
</defs>
</svg>
