<svg width="50" height="50" viewBox="0 0 50 50" fill="none" xmlns="http://www.w3.org/2000/svg">
<path d="M31.25 6.25C31.25 4.5924 30.5915 3.00269 29.4194 1.83058C28.2473 0.65848 26.6576 0 25 0C23.3424 0 21.7527 0.65848 20.5806 1.83058C19.4085 3.00269 18.75 4.5924 18.75 6.25C18.75 7.9076 19.4085 9.49732 20.5806 10.6694C21.7527 11.8415 23.3424 12.5 25 12.5C26.6576 12.5 28.2473 11.8415 29.4194 10.6694C30.5915 9.49732 31.25 7.9076 31.25 6.25ZM25 18.75C26.6576 18.75 28.2473 19.4085 29.4194 20.5806C30.5915 21.7527 31.25 23.3424 31.25 25C31.25 26.6576 30.5915 28.2473 29.4194 29.4194C28.2473 30.5915 26.6576 31.25 25 31.25C23.3424 31.25 21.7527 30.5915 20.5806 29.4194C19.4085 28.2473 18.75 26.6576 18.75 25C18.75 23.3424 19.4085 21.7527 20.5806 20.5806C21.7527 19.4085 23.3424 18.75 25 18.75ZM25 37.5C26.6576 37.5 28.2473 38.1585 29.4194 39.3306C30.5915 40.5027 31.25 42.0924 31.25 43.75C31.25 45.4076 30.5915 46.9973 29.4194 48.1694C28.2473 49.3415 26.6576 50 25 50C23.3424 50 21.7527 49.3415 20.5806 48.1694C19.4085 46.9973 18.75 45.4076 18.75 43.75C18.75 42.0924 19.4085 40.5027 20.5806 39.3306C21.7527 38.1585 23.3424 37.5 25 37.5Z" fill="#FF98C1"/>
</svg>
