<svg width="46" height="46" viewBox="0 0 46 46" fill="none" xmlns="http://www.w3.org/2000/svg">
<path d="M3.83398 40.2502V5.75016C3.83398 5.24183 4.03592 4.75432 4.39536 4.39487C4.75481 4.03543 5.24232 3.8335 5.75065 3.8335C6.25898 3.8335 6.74649 4.03543 7.10594 4.39487C7.46538 4.75432 7.66732 5.24183 7.66732 5.75016V6.99791L10.5232 6.30025L11.3435 6.11816C15.4643 5.29975 19.7538 5.84983 23.5335 7.70133L23.7367 7.79908C26.9044 9.34621 30.5073 9.75894 33.9429 8.96825L39.8098 7.617C40.0906 7.55217 40.3823 7.55147 40.6634 7.61495C40.9444 7.67843 41.2075 7.80447 41.4332 7.98368C41.6588 8.16289 41.8411 8.39066 41.9665 8.65005C42.092 8.90944 42.1573 9.19378 42.1577 9.48191L42.1673 28.8709C42.1676 29.3045 42.0209 29.7254 41.7511 30.0648C41.4813 30.4042 41.1044 30.6421 40.6819 30.7397L34.8054 32.0928C30.5121 33.0818 26.0002 32.5662 22.0519 30.6362L21.8468 30.5365C18.6125 28.958 14.9278 28.5613 11.4317 29.4152L7.66732 30.3372V40.2502C7.66732 40.7585 7.46538 41.246 7.10594 41.6054C6.74649 41.9649 6.25898 42.1668 5.75065 42.1668C5.24232 42.1668 4.75481 41.9649 4.39536 41.6054C4.03592 41.246 3.83398 40.7585 3.83398 40.2502Z" fill="#FF67A6"/>
</svg>
