<svg width="50" height="50" viewBox="0 0 50 50" fill="none" xmlns="http://www.w3.org/2000/svg">
<path d="M12.5 6.25V12.5H6.25V6.25H12.5ZM15.625 43.75V37.5C15.625 36.6712 15.2958 35.8763 14.7097 35.2903C14.1237 34.7042 13.3288 34.375 12.5 34.375H6.25C5.4212 34.375 4.62634 34.7042 4.04029 35.2903C3.45424 35.8763 3.125 36.6712 3.125 37.5V43.75C3.125 44.5788 3.45424 45.3737 4.04029 45.9597C4.62634 46.5458 5.4212 46.875 6.25 46.875H12.5C13.3288 46.875 14.1237 46.5458 14.7097 45.9597C15.2958 45.3737 15.625 44.5788 15.625 43.75ZM15.625 28.125V21.875C15.625 21.0462 15.2958 20.2513 14.7097 19.6653C14.1237 19.0792 13.3288 18.75 12.5 18.75H6.25C5.4212 18.75 4.62634 19.0792 4.04029 19.6653C3.45424 20.2513 3.125 21.0462 3.125 21.875V28.125C3.125 28.9538 3.45424 29.7487 4.04029 30.3347C4.62634 30.9208 5.4212 31.25 6.25 31.25H12.5C13.3288 31.25 14.1237 30.9208 14.7097 30.3347C15.2958 29.7487 15.625 28.9538 15.625 28.125ZM15.625 12.5V6.25C15.625 5.4212 15.2958 4.62634 14.7097 4.04029C14.1237 3.45424 13.3288 3.125 12.5 3.125H6.25C5.4212 3.125 4.62634 3.45424 4.04029 4.04029C3.45424 4.62634 3.125 5.4212 3.125 6.25V12.5C3.125 13.3288 3.45424 14.1237 4.04029 14.7097C4.62634 15.2958 5.4212 15.625 6.25 15.625H12.5C13.3288 15.625 14.1237 15.2958 14.7097 14.7097C15.2958 14.1237 15.625 13.3288 15.625 12.5ZM31.25 43.75V37.5C31.25 36.6712 30.9208 35.8763 30.3347 35.2903C29.7487 34.7042 28.9538 34.375 28.125 34.375H21.875C21.0462 34.375 20.2513 34.7042 19.6653 35.2903C19.0792 35.8763 18.75 36.6712 18.75 37.5V43.75C18.75 44.5788 19.0792 45.3737 19.6653 45.9597C20.2513 46.5458 21.0462 46.875 21.875 46.875H28.125C28.9538 46.875 29.7487 46.5458 30.3347 45.9597C30.9208 45.3737 31.25 44.5788 31.25 43.75ZM31.25 28.125V21.875C31.25 21.0462 30.9208 20.2513 30.3347 19.6653C29.7487 19.0792 28.9538 18.75 28.125 18.75H21.875C21.0462 18.75 20.2513 19.0792 19.6653 19.6653C19.0792 20.2513 18.75 21.0462 18.75 21.875V28.125C18.75 28.9538 19.0792 29.7487 19.6653 30.3347C20.2513 30.9208 21.0462 31.25 21.875 31.25H28.125C28.9538 31.25 29.7487 30.9208 30.3347 30.3347C30.9208 29.7487 31.25 28.9538 31.25 28.125ZM31.25 12.5V6.25C31.25 5.4212 30.9208 4.62634 30.3347 4.04029C29.7487 3.45424 28.9538 3.125 28.125 3.125H21.875C21.0462 3.125 20.2513 3.45424 19.6653 4.04029C19.0792 4.62634 18.75 5.4212 18.75 6.25V12.5C18.75 13.3288 19.0792 14.1237 19.6653 14.7097C20.2513 15.2958 21.0462 15.625 21.875 15.625H28.125C28.9538 15.625 29.7487 15.2958 30.3347 14.7097C30.9208 14.1237 31.25 13.3288 31.25 12.5ZM28.125 6.25V12.5H21.875V6.25H28.125ZM43.75 6.25V12.5H37.5V6.25H43.75ZM12.5 21.875V28.125H6.25V21.875H12.5ZM28.125 21.875V28.125H21.875V21.875H28.125ZM43.75 21.875H37.5V28.125H43.75V21.875ZM12.5 37.5V43.75H6.25V37.5H12.5ZM28.125 37.5V43.75H21.875V37.5H28.125ZM43.75 37.5V43.75H37.5V37.5H43.75ZM37.5 3.125C36.6712 3.125 35.8763 3.45424 35.2903 4.04029C34.7042 4.62634 34.375 5.4212 34.375 6.25V12.5C34.375 13.3288 34.7042 14.1237 35.2903 14.7097C35.8763 15.2958 36.6712 15.625 37.5 15.625H43.75C44.5788 15.625 45.3737 15.2958 45.9597 14.7097C46.5458 14.1237 46.875 13.3288 46.875 12.5V6.25C46.875 5.4212 46.5458 4.62634 45.9597 4.04029C45.3737 3.45424 44.5788 3.125 43.75 3.125H37.5ZM34.375 21.875C34.375 21.0462 34.7042 20.2513 35.2903 19.6653C35.8763 19.0792 36.6712 18.75 37.5 18.75H43.75C44.5788 18.75 45.3737 19.0792 45.9597 19.6653C46.5458 20.2513 46.875 21.0462 46.875 21.875V28.125C46.875 28.9538 46.5458 29.7487 45.9597 30.3347C45.3737 30.9208 44.5788 31.25 43.75 31.25H37.5C36.6712 31.25 35.8763 30.9208 35.2903 30.3347C34.7042 29.7487 34.375 28.9538 34.375 28.125V21.875ZM37.5 34.375C36.6712 34.375 35.8763 34.7042 35.2903 35.2903C34.7042 35.8763 34.375 36.6712 34.375 37.5V43.75C34.375 44.5788 34.7042 45.3737 35.2903 45.9597C35.8763 46.5458 36.6712 46.875 37.5 46.875H43.75C44.5788 46.875 45.3737 46.5458 45.9597 45.9597C46.5458 45.3737 46.875 44.5788 46.875 43.75V37.5C46.875 36.6712 46.5458 35.8763 45.9597 35.2903C45.3737 34.7042 44.5788 34.375 43.75 34.375H37.5Z" fill="#FF67A6"/>
</svg>
