<svg width="59" height="54" viewBox="0 0 59 54" fill="none" xmlns="http://www.w3.org/2000/svg">
<path d="M42.2917 1.70811e-07C39.7153 -0.000376101 37.1769 0.620909 34.892 1.81111C32.607 3.00131 30.643 4.72528 29.1667 6.83667C27.6903 4.72528 25.7263 3.00131 23.4414 1.81111C21.1564 0.620909 18.618 -0.000376101 16.0417 1.70811e-07C11.7872 1.70811e-07 7.70689 1.6901 4.6985 4.6985C1.6901 7.70689 0 11.7872 0 16.0417C0 32.7221 18.9583 46.4858 29.1667 53.5208C39.375 46.4858 58.3333 32.7221 58.3333 16.0417C58.3333 13.935 57.9184 11.8491 57.1122 9.90279C56.3061 7.95652 55.1244 6.1881 53.6348 4.6985C52.1452 3.20889 50.3768 2.02727 48.4305 1.2211C46.4843 0.41493 44.3983 1.70811e-07 42.2917 1.70811e-07Z" fill="#FF67A6"/>
</svg>
