<svg width="50" height="50" viewBox="0 0 50 50" fill="none" xmlns="http://www.w3.org/2000/svg">
<path d="M2.51043 27.5028H5.01066V45.0006C5.01066 47.7503 7.26086 50 10.0111 50H40.0139C42.7641 50 45.0143 47.7503 45.0143 45.0006V27.5028H47.5146C48.5147 27.5028 49.4397 26.9028 49.8148 25.9529C50.1898 25.0281 49.9898 23.9532 49.2647 23.2283L26.7877 0.731021C26.5564 0.49929 26.2816 0.315444 25.9791 0.190005C25.6767 0.064567 25.3525 0 25.025 0C24.6975 0 24.3733 0.064567 24.0709 0.190005C23.7684 0.315444 23.4936 0.49929 23.2623 0.731021L0.735263 23.2283C0.0101965 23.9532 -0.189822 25.0281 0.185213 25.9529C0.560247 26.8778 1.48533 27.5028 2.48542 27.5028H2.51043ZM25.0125 6.03037L40.0139 21.0285V45.0006H10.0111V21.0285L25.0125 6.03037Z" fill="#FF67A6"/>
<path d="M25.0429 26.4606L24.5 26.9675L23.9571 26.4606C21.8943 24.5131 18.61 24.5131 16.5471 26.4606C14.4843 28.4348 14.4843 31.5294 16.5471 33.4769L24.5 41L32.4529 33.4769C34.5157 31.5294 34.5157 28.4348 32.4529 26.4606C30.3629 24.5131 27.1057 24.5131 25.0429 26.4606Z" fill="#FF67A6"/>
</svg>
