<svg width="20" height="23" viewBox="0 0 20 23" fill="none" xmlns="http://www.w3.org/2000/svg">
<path fill-rule="evenodd" clip-rule="evenodd" d="M0 9.75C0 4.365 4.365 0 9.75 0C15.135 0 19.5 4.365 19.5 9.75C19.5 13.2435 17.697 16.1825 15.737 18.3515C13.771 20.527 11.574 22.0095 10.6185 22.6045C10.3584 22.7683 10.0573 22.8552 9.75 22.8552C9.44266 22.8552 9.14158 22.7683 8.8815 22.6045C7.9265 22.0095 5.729 20.527 3.763 18.3515C1.803 16.1825 0 13.2435 0 9.75ZM9.75 13.75C10.8109 13.75 11.8283 13.3286 12.5784 12.5784C13.3286 11.8283 13.75 10.8109 13.75 9.75C13.75 8.68913 13.3286 7.67172 12.5784 6.92157C11.8283 6.17143 10.8109 5.75 9.75 5.75C8.68913 5.75 7.67172 6.17143 6.92157 6.92157C6.17143 7.67172 5.75 8.68913 5.75 9.75C5.75 10.8109 6.17143 11.8283 6.92157 12.5784C7.67172 13.3286 8.68913 13.75 9.75 13.75Z" fill="#FF67A6"/>
</svg>
