<svg width="44" height="44" viewBox="0 0 44 44" fill="none" xmlns="http://www.w3.org/2000/svg">
<path d="M11.6875 4.125C9.6818 4.125 7.75825 4.92176 6.34001 6.34001C4.92176 7.75825 4.125 9.6818 4.125 11.6875V32.3125C4.125 34.3182 4.92176 36.2418 6.34001 37.66C7.75825 39.0782 9.6818 39.875 11.6875 39.875H28.1875C28.7345 39.875 29.2591 39.6577 29.6459 39.2709C30.0327 38.8841 30.25 38.3595 30.25 37.8125C30.25 37.2655 30.0327 36.7409 29.6459 36.3541C29.2591 35.9673 28.7345 35.75 28.1875 35.75H11.6875C9.79 35.75 8.25 34.21 8.25 32.3125V11.6875C8.25 9.79 9.79 8.25 11.6875 8.25H28.1875C28.7345 8.25 29.2591 8.0327 29.6459 7.64591C30.0327 7.25911 30.25 6.73451 30.25 6.1875C30.25 5.64049 30.0327 5.11589 29.6459 4.72909C29.2591 4.3423 28.7345 4.125 28.1875 4.125H11.6875ZM33.0825 12.98C32.8937 12.7774 32.666 12.6148 32.413 12.5021C32.16 12.3894 31.8869 12.3288 31.6099 12.3239C31.333 12.319 31.0579 12.3699 30.8011 12.4737C30.5443 12.5774 30.311 12.7318 30.1151 12.9276C29.9193 13.1235 29.7649 13.3568 29.6612 13.6136C29.5574 13.8704 29.5065 14.1455 29.5114 14.4224C29.5163 14.6994 29.5769 14.9725 29.6896 15.2255C29.8023 15.4785 29.9649 15.7062 30.1675 15.895L34.21 19.9375H18.5625C18.0155 19.9375 17.4909 20.1548 17.1041 20.5416C16.7173 20.9284 16.5 21.453 16.5 22C16.5 22.547 16.7173 23.0716 17.1041 23.4584C17.4909 23.8452 18.0155 24.0625 18.5625 24.0625H34.21L30.1675 28.105C29.9649 28.2938 29.8023 28.5215 29.6896 28.7745C29.5769 29.0275 29.5163 29.3006 29.5114 29.5776C29.5065 29.8545 29.5574 30.1296 29.6612 30.3864C29.7649 30.6432 29.9193 30.8765 30.1151 31.0724C30.311 31.2682 30.5443 31.4226 30.8011 31.5263C31.0579 31.6301 31.333 31.681 31.6099 31.6761C31.8869 31.6712 32.16 31.6106 32.413 31.4979C32.666 31.3852 32.8937 31.2226 33.0825 31.02L40.645 23.4575C41.0312 23.0708 41.2482 22.5466 41.2482 22C41.2482 21.4534 41.0312 20.9292 40.645 20.5425L33.0825 12.98Z" fill="#FF67A6"/>
</svg>
