<svg width="60" height="60" viewBox="0 0 60 60" fill="none" xmlns="http://www.w3.org/2000/svg">
<path d="M38.3751 20.35C36.2001 18.2 32.7251 18.2 30.5751 20.35L30.0251 20.9L29.4751 20.35C27.3001 18.2 23.8251 18.2 21.6751 20.35C19.5501 22.4 19.5001 25.75 21.5251 27.875L21.6751 28.025L30.0501 36.25L38.4251 28.025C40.5501 25.975 40.6001 22.625 38.5751 20.5L38.4251 20.35H38.3751Z" fill="#FF67A6"/>
<path d="M30 7.5C16.225 7.5 5 16.475 5 27.5C5 34.775 9.75 41.275 17.5 44.825V52.5C17.5 53.45 18.025 54.3 18.875 54.725C19.225 54.9 19.6 55 20 55C20.525 55 21.05 54.825 21.5 54.5L30.85 47.5C44.25 47.15 55 38.325 55 27.5C55 16.675 43.775 7.5 30 7.5ZM30 42.5C29.45 42.5 28.925 42.675 28.5 43L22.5 47.5V43.175C22.5 42.15 21.875 41.225 20.9 40.85C14.175 38.25 10 33.15 10 27.5C10 19.225 18.975 12.5 30 12.5C41.025 12.5 50 19.225 50 27.5C50 35.775 41.025 42.5 30 42.5Z" fill="#FF67A6"/>
</svg>
