<svg width="50" height="50" viewBox="0 0 50 50" fill="none" xmlns="http://www.w3.org/2000/svg">
<path d="M16.0681 28.5686C16.4667 28.1686 16.666 27.6734 16.666 27.0832C16.666 26.4929 16.466 25.9984 16.066 25.5998C15.666 25.2012 15.1716 25.0012 14.5827 24.9998C13.9938 24.9984 13.4994 25.1984 13.0994 25.5998C12.6994 26.0012 12.4994 26.4957 12.4994 27.0832C12.4994 27.6707 12.6994 28.1658 13.0994 28.5686C13.4994 28.9714 13.9938 29.1707 14.5827 29.1665C15.1716 29.1623 15.6667 28.9623 16.0681 28.5665M16.0681 22.3165C16.4667 21.9193 16.666 21.4248 16.666 20.8332C16.666 20.2415 16.466 19.7471 16.066 19.3498C15.666 18.9526 15.1716 18.7526 14.5827 18.7498C13.9938 18.7471 13.4994 18.9471 13.0994 19.3498C12.6994 19.7526 12.4994 20.2471 12.4994 20.8332C12.4994 21.4193 12.6994 21.9144 13.0994 22.3186C13.4994 22.7228 13.9938 22.9221 14.5827 22.9165C15.1716 22.9109 15.6667 22.7109 16.0681 22.3165ZM16.0681 16.0665C16.4667 15.6693 16.666 15.1748 16.666 14.5832C16.666 13.9915 16.466 13.4971 16.066 13.0998C15.666 12.7026 15.1716 12.5026 14.5827 12.4998C13.9938 12.4971 13.4994 12.6971 13.0994 13.0998C12.6994 13.5026 12.4994 13.9971 12.4994 14.5832C12.4994 15.1693 12.6994 15.6644 13.0994 16.0686C13.4994 16.4728 13.9938 16.6721 14.5827 16.6665C15.1716 16.6609 15.6667 16.4609 16.0681 16.0665ZM22.916 29.1665H29.166C29.7563 29.1665 30.2514 28.9665 30.6514 28.5665C31.0514 28.1665 31.2507 27.6721 31.2494 27.0832C31.248 26.4943 31.048 25.9998 30.6494 25.5998C30.2507 25.1998 29.7563 24.9998 29.166 24.9998H22.916C22.3257 24.9998 21.8313 25.1998 21.4327 25.5998C21.0341 25.9998 20.8341 26.4943 20.8327 27.0832C20.8313 27.6721 21.0313 28.1672 21.4327 28.5686C21.8341 28.97 22.3285 29.1693 22.916 29.1665ZM22.916 22.9165H35.416C36.0063 22.9165 36.5014 22.7165 36.9014 22.3165C37.3014 21.9165 37.5007 21.4221 37.4994 20.8332C37.498 20.2443 37.298 19.7498 36.8994 19.3498C36.5007 18.9498 36.0063 18.7498 35.416 18.7498H22.916C22.3257 18.7498 21.8313 18.9498 21.4327 19.3498C21.0341 19.7498 20.8341 20.2443 20.8327 20.8332C20.8313 21.4221 21.0313 21.9172 21.4327 22.3186C21.8341 22.72 22.3285 22.9193 22.916 22.9165ZM22.916 16.6665H35.416C36.0063 16.6665 36.5014 16.4665 36.9014 16.0665C37.3014 15.6665 37.5007 15.1721 37.4994 14.5832C37.498 13.9943 37.298 13.4998 36.8994 13.0998C36.5007 12.6998 36.0063 12.4998 35.416 12.4998H22.916C22.3257 12.4998 21.8313 12.6998 21.4327 13.0998C21.0341 13.4998 20.8341 13.9943 20.8327 14.5832C20.8313 15.1721 21.0313 15.6672 21.4327 16.0686C21.8341 16.47 22.3285 16.6693 22.916 16.6665ZM12.4994 37.4998L7.70769 42.2915C7.04796 42.9512 6.29241 43.0991 5.44102 42.7353C4.58963 42.3714 4.16463 41.72 4.16602 40.7811V8.33317C4.16602 7.18734 4.57435 6.20678 5.39102 5.3915C6.20769 4.57623 7.18824 4.16789 8.33269 4.1665H41.666C42.8119 4.1665 43.7931 4.57484 44.6098 5.3915C45.4264 6.20817 45.8341 7.18873 45.8327 8.33317V33.3332C45.8327 34.479 45.4251 35.4603 44.6098 36.2769C43.7945 37.0936 42.8132 37.5012 41.666 37.4998H12.4994ZM10.7285 33.3332H41.666V8.33317H8.33269V35.6769L10.7285 33.3332Z" fill="#FF67A6"/>
</svg>
