<svg width="72" height="72" viewBox="0 0 72 72" fill="none" xmlns="http://www.w3.org/2000/svg">
<path d="M60.1127 11.9138C59.7796 11.5803 59.3841 11.3157 58.9486 11.1351C58.5132 10.9546 58.0464 10.8617 57.575 10.8617C57.1035 10.8617 56.6367 10.9546 56.2013 11.1351C55.7658 11.3157 55.3703 11.5803 55.0373 11.9138L15.4421 51.4873C15.1085 51.8235 14.8446 52.2221 14.6654 52.6605C14.4863 53.0988 14.3955 53.5681 14.3982 54.0416V64.8344C14.3982 66.8131 16.018 68.432 17.9978 68.432H28.7965C29.7684 68.432 30.6683 68.0362 31.3522 67.3887L70.9473 27.8151C71.281 27.4823 71.5458 27.087 71.7264 26.6518C71.907 26.2166 72 25.75 72 25.2788C72 24.8077 71.907 24.3411 71.7264 23.9059C71.5458 23.4707 71.281 23.0754 70.9473 22.7425L60.1486 11.9498L60.1127 11.9138ZM27.2847 61.2368H21.5614V55.5166L48.5581 28.5347L54.2814 34.2548L27.2847 61.2368ZM59.3567 29.1822L53.6334 23.4621L57.557 19.5407L63.2803 25.2609L59.3567 29.1822ZM17.9618 36.0536C18.8977 36.0536 19.7616 35.514 20.1575 34.6146L24.585 24.6493L34.5558 20.2242C35.4197 19.8285 35.9956 18.9651 35.9956 18.0297C35.9956 17.0943 35.4197 16.2309 34.5558 15.8352L24.585 11.4101L20.1575 1.44478C19.9687 1.02667 19.6661 0.670026 19.2842 0.415573C18.9024 0.16112 18.4566 0.019107 17.9978 0.00574498C17.0259 -0.0662069 16.198 0.545384 15.8021 1.40881L11.3746 11.0144L1.36783 15.8352C0.539934 16.2309 0 17.0943 0 18.0297C0 18.9651 0.57593 19.7925 1.43982 20.1882L11.4106 24.6133L15.8381 34.5786C16.234 35.442 17.0979 36.0177 18.0338 36.0177L17.9618 36.0536ZM71.0913 59.9057L65.116 57.2435L62.4524 51.2715C62.3384 51.0211 62.1567 50.8076 61.9277 50.655C61.6987 50.5024 61.4316 50.4169 61.1565 50.408C60.5806 50.3721 60.0767 50.7318 59.8247 51.2355L57.161 56.9916L51.1497 59.8697C50.6458 60.1215 50.3218 60.6252 50.3218 61.2008C50.3218 61.7764 50.6818 62.2801 51.1857 62.496L57.161 65.1582L59.8247 71.1302C59.9381 71.3888 60.1245 71.6088 60.361 71.7633C60.5976 71.9177 60.874 72 61.1565 72C61.4391 72 61.7155 71.9177 61.952 71.7633C62.1885 71.6088 62.3749 71.3888 62.4884 71.1302L65.152 65.1582L71.1273 62.496C71.3861 62.3826 71.6062 62.1963 71.7607 61.9599C71.9153 61.7235 71.9976 61.4472 71.9976 61.1648C71.9976 60.8825 71.9153 60.6062 71.7607 60.3698C71.6062 60.1334 71.3861 59.9471 71.1273 59.8337L71.0913 59.9057Z" fill="#FF67A6"/>
</svg>
