<svg width="60" height="60" viewBox="0 0 60 60" fill="none" xmlns="http://www.w3.org/2000/svg">
<path d="M26.25 50C26.25 50.9946 26.6451 51.9484 27.3483 52.6516C28.0516 53.3549 29.0054 53.75 30 53.75C30.9946 53.75 31.9484 53.3549 32.6517 52.6516C33.3549 51.9484 33.75 50.9946 33.75 50V33.75H50C50.9946 33.75 51.9484 33.3549 52.6516 32.6517C53.3549 31.9484 53.75 30.9946 53.75 30C53.75 29.0054 53.3549 28.0516 52.6516 27.3483C51.9484 26.6451 50.9946 26.25 50 26.25H33.75V10C33.75 9.00544 33.3549 8.05161 32.6517 7.34835C31.9484 6.64509 30.9946 6.25 30 6.25C29.0054 6.25 28.0516 6.64509 27.3483 7.34835C26.6451 8.05161 26.25 9.00544 26.25 10V26.25H10C9.00544 26.25 8.05161 26.6451 7.34835 27.3483C6.64509 28.0516 6.25 29.0054 6.25 30C6.25 30.9946 6.64509 31.9484 7.34835 32.6517C8.05161 33.3549 9.00544 33.75 10 33.75H26.25V50Z" fill="#FF67A6"/>
</svg>
