<svg width="50" height="50" viewBox="0 0 50 50" fill="none" xmlns="http://www.w3.org/2000/svg">
<path d="M41.7968 26.3477L42.8739 22.3227C44.1322 17.6248 44.7635 15.2769 44.2905 13.2436C43.9157 11.6383 43.0733 10.1803 41.8697 9.05398C40.3468 7.6269 37.9968 6.99773 33.2989 5.7394C28.601 4.47898 26.251 3.84981 24.2197 4.32273C22.6145 4.69755 21.1565 5.54001 20.0301 6.74356C18.8072 8.04773 18.1697 9.95815 17.2218 13.429L16.7135 15.3144L15.6364 19.3394C14.376 24.0373 13.7468 26.3852 14.2197 28.4186C14.5945 30.0238 15.437 31.4818 16.6405 32.6081C18.1635 34.0352 20.5135 34.6644 25.2114 35.9248C29.4447 37.0581 31.7718 37.6811 33.678 37.4456C33.8864 37.4193 34.0905 37.3831 34.2905 37.3373C35.8953 36.9637 37.3532 36.1227 38.4801 34.9206C39.9072 33.3956 40.5364 31.0456 41.7968 26.3477Z" fill="#FF67A6"/>
<path d="M5.21939 30.6564L6.29647 34.6814C7.5548 39.3794 8.18605 41.7294 9.61314 43.2523C10.7395 44.4539 12.1967 45.2949 13.8006 45.6689C15.834 46.1439 18.184 45.5148 22.884 44.2564C27.5798 42.9981 29.9298 42.3689 31.4527 40.9419C31.5791 40.8224 31.7013 40.7002 31.8194 40.5752C31.1099 40.5112 30.4045 40.4069 29.7069 40.2627C28.2569 39.9752 26.534 39.5127 24.4965 38.9669L24.2736 38.9064L24.2215 38.8939C22.0048 38.3002 20.1527 37.8023 18.6736 37.2689C17.1173 36.7064 15.7048 36.0127 14.5027 34.8877C12.8492 33.3385 11.6921 31.3339 11.1777 29.1273C10.8027 27.5252 10.9111 25.9564 11.2027 24.3273C11.4819 22.7669 11.9819 20.8981 12.5819 18.6564L13.6965 14.5023L13.734 14.3564C9.73397 15.4335 7.62772 16.071 6.22355 17.3856C5.02041 18.5128 4.17866 19.9716 3.8048 21.5773C3.3298 23.6085 3.95897 25.9585 5.21939 30.6564Z" fill="#FF67A6"/>
</svg>
