<svg width="61" height="61" viewBox="0 0 61 61" fill="none" xmlns="http://www.w3.org/2000/svg">
<path d="M54.4103 50.2047L43.2004 38.9947C45.8993 35.4019 47.3562 31.0286 47.3512 26.535C47.3512 15.057 38.013 5.71875 26.535 5.71875C15.057 5.71875 5.71875 15.057 5.71875 26.535C5.71875 38.013 15.057 47.3512 26.535 47.3512C31.0286 47.3562 35.4019 45.8993 38.9947 43.2004L50.2047 54.4103C50.7721 54.9176 51.5122 55.1884 52.273 55.1671C53.0338 55.1458 53.7576 54.834 54.2958 54.2958C54.834 53.7576 55.1458 53.0338 55.1671 52.273C55.1884 51.5122 54.9176 50.7721 54.4103 50.2047ZM11.6662 26.535C11.6662 23.5942 12.5383 20.7195 14.1721 18.2744C15.8059 15.8292 18.1281 13.9234 20.845 12.7981C23.5619 11.6727 26.5515 11.3782 29.4357 11.9519C32.32 12.5257 34.9694 13.9418 37.0488 16.0212C39.1282 18.1006 40.5443 20.75 41.1181 23.6343C41.6918 26.5185 41.3973 29.5081 40.2719 32.225C39.1466 34.9419 37.2408 37.2641 34.7956 38.8979C32.3505 40.5317 29.4758 41.4037 26.535 41.4037C22.593 41.399 18.8138 39.831 16.0264 37.0436C13.239 34.2562 11.671 30.477 11.6662 26.535Z" fill="#FF67A6"/>
</svg>
