<svg width="53" height="53" viewBox="0 0 53 53" fill="none" xmlns="http://www.w3.org/2000/svg">
<path d="M23.9051 48.5833C22.9114 48.5833 22.056 48.252 21.339 47.5895C20.622 46.927 20.1892 46.1173 20.0405 45.1604L19.5436 41.5166C19.0652 41.3326 18.6147 41.1118 18.1921 40.8541C17.7696 40.5965 17.3552 40.3204 16.9489 40.026L13.5259 41.4614C12.6058 41.8663 11.6857 41.9031 10.7655 41.5718C9.84538 41.2406 9.12767 40.6517 8.6124 39.8052L6.0176 35.2781C5.50233 34.4316 5.3551 33.5298 5.57594 32.5729C5.79677 31.6159 6.29365 30.8246 7.06656 30.1989L9.9926 27.9906C9.9558 27.7329 9.9374 27.4841 9.9374 27.2442V25.7535C9.9374 25.515 9.9558 25.267 9.9926 25.0093L7.06656 22.801C6.29365 22.1753 5.79677 21.384 5.57594 20.427C5.3551 19.4701 5.50233 18.5684 6.0176 17.7218L8.6124 13.1948C9.12767 12.3482 9.84538 11.7593 10.7655 11.4281C11.6857 11.0968 12.6058 11.1336 13.5259 11.5385L16.9489 12.9739C17.3537 12.6795 17.777 12.4034 18.2186 12.1458C18.6603 11.8882 19.102 11.6673 19.5436 11.4833L20.0405 7.83954C20.1877 6.8826 20.6206 6.07288 21.339 5.41038C22.0575 4.74788 22.9128 4.41663 23.9051 4.41663H29.0947C30.0884 4.41663 30.9445 4.74788 31.663 5.41038C32.3814 6.07288 32.8135 6.8826 32.9593 7.83954L33.4561 11.4833C33.9346 11.6673 34.3859 11.8882 34.8099 12.1458C35.2339 12.4034 35.6476 12.6795 36.0509 12.9739L39.4739 11.5385C40.394 11.1336 41.3141 11.0968 42.2343 11.4281C43.1544 11.7593 43.8721 12.3482 44.3874 13.1948L46.9822 17.7218C47.4975 18.5684 47.6447 19.4701 47.4239 20.427C47.203 21.384 46.7061 22.1753 45.9332 22.801L43.0072 25.0093C43.044 25.267 43.0624 25.5158 43.0624 25.7558V27.2442C43.0624 27.4841 43.0256 27.7329 42.952 27.9906L45.878 30.1989C46.6509 30.8246 47.1478 31.6159 47.3687 32.5729C47.5895 33.5298 47.4423 34.4316 46.927 35.2781L44.277 39.8052C43.7617 40.6517 43.044 41.2406 42.1239 41.5718C41.2037 41.9031 40.2836 41.8663 39.3634 41.4614L36.0509 40.026C35.6461 40.3204 35.2228 40.5965 34.7811 40.8541C34.3395 41.1118 33.8978 41.3326 33.4561 41.5166L32.9593 45.1604C32.812 46.1173 32.38 46.927 31.663 47.5895C30.946 48.252 30.0899 48.5833 29.0947 48.5833H23.9051ZM24.2916 44.1666H28.653L29.4259 38.3145C30.5669 38.0201 31.6254 37.588 32.6015 37.0183C33.5776 36.4485 34.4698 35.758 35.278 34.9468L40.7436 37.2104L42.8968 33.4562L38.1489 29.8677C38.3329 29.3524 38.4617 28.8099 38.5353 28.2401C38.6089 27.6704 38.6457 27.0903 38.6457 26.5C38.6457 25.9096 38.6089 25.3303 38.5353 24.762C38.4617 24.1937 38.3329 23.6505 38.1489 23.1323L42.8968 19.5437L40.7436 15.7895L35.278 18.1083C34.4683 17.2618 33.5761 16.5536 32.6015 15.9839C31.6269 15.4141 30.5684 14.9813 29.4259 14.6854L28.7082 8.83329H24.3468L23.5739 14.6854C22.4329 14.9798 21.3751 15.4127 20.4005 15.9839C19.4259 16.5551 18.533 17.2448 17.7218 18.0531L12.2561 15.7895L10.103 19.5437L14.8509 23.077C14.6669 23.6291 14.5381 24.1812 14.4645 24.7333C14.3909 25.2854 14.3541 25.8743 14.3541 26.5C14.3541 27.0888 14.3909 27.6593 14.4645 28.2114C14.5381 28.7635 14.6669 29.3156 14.8509 29.8677L10.103 33.4562L12.2561 37.2104L17.7218 34.8916C18.5315 35.7382 19.4244 36.447 20.4005 37.0183C21.3766 37.5895 22.4344 38.0216 23.5739 38.3145L24.2916 44.1666ZM26.6103 34.2291C28.745 34.2291 30.5669 33.4746 32.0759 31.9656C33.585 30.4566 34.3395 28.6347 34.3395 26.5C34.3395 24.3652 33.585 22.5434 32.0759 21.0343C30.5669 19.5253 28.745 18.7708 26.6103 18.7708C24.4388 18.7708 22.6081 19.5253 21.1182 21.0343C19.6283 22.5434 18.8826 24.3652 18.8811 26.5C18.8797 28.6347 19.6254 30.4566 21.1182 31.9656C22.611 33.4746 24.4417 34.2291 26.6103 34.2291Z" fill="#FF67A6"/>
</svg>
