<svg width="54" height="54" viewBox="0 0 54 54" fill="none" xmlns="http://www.w3.org/2000/svg">
<path d="M6.75 22.5V42.75C6.75 43.9435 7.22411 45.0881 8.06802 45.932C8.91193 46.7759 10.0565 47.25 11.25 47.25H42.75C43.9435 47.25 45.0881 46.7759 45.932 45.932C46.7759 45.0881 47.25 43.9435 47.25 42.75V22.5" stroke="#FF67A6" stroke-width="4"/>
<path d="M33.374 47.25V33.75C33.374 32.5565 32.8999 31.4119 32.056 30.568C31.2121 29.7241 30.0675 29.25 28.874 29.25H24.374C23.1805 29.25 22.036 29.7241 21.192 30.568C20.3481 31.4119 19.874 32.5565 19.874 33.75V47.25" stroke="#FF67A6" stroke-width="4" stroke-miterlimit="16"/>
<path d="M49.0905 21.069L45.279 7.72875C45.1983 7.44671 45.028 7.19862 44.7937 7.02202C44.5595 6.84543 44.2741 6.74993 43.9808 6.75H34.875L35.9438 19.584C35.9603 19.7903 36.0256 19.9897 36.1344 20.1657C36.2431 20.3418 36.3922 20.4894 36.5693 20.5965C37.4468 21.1208 39.1612 22.0883 40.5 22.5C42.786 23.2042 46.125 22.95 48.0285 22.716C48.2136 22.6921 48.3912 22.6281 48.5489 22.5284C48.7067 22.4288 48.8408 22.2959 48.9419 22.1391C49.043 21.9823 49.1087 21.8053 49.1344 21.6205C49.1601 21.4356 49.1451 21.2474 49.0905 21.069Z" stroke="#FF67A6" stroke-width="4"/>
<path d="M31.4993 22.5C32.7773 22.1063 34.3973 21.2085 35.3018 20.673C35.5123 20.5471 35.683 20.3644 35.7945 20.146C35.9059 19.9275 35.9535 19.682 35.9318 19.4377L34.8743 6.75H19.1243L18.0668 19.4377C18.0447 19.6824 18.0921 19.9283 18.2036 20.1473C18.315 20.3662 18.486 20.5492 18.6968 20.6753C19.6013 21.2085 21.2213 22.1063 22.4993 22.5C25.8586 23.535 28.1401 23.535 31.4993 22.5Z" stroke="#FF67A6" stroke-width="4"/>
<path d="M8.72075 7.72875L4.90925 21.0712C4.85545 21.2494 4.84107 21.4371 4.8671 21.6214C4.89313 21.8057 4.95896 21.9821 5.06001 22.1384C5.16105 22.2946 5.2949 22.4271 5.45226 22.5264C5.60961 22.6258 5.78671 22.6897 5.97125 22.7138C7.8725 22.95 11.2138 23.202 13.4998 22.5C14.8385 22.0883 16.5553 21.1207 17.4305 20.5987C17.6079 20.4914 17.7571 20.3434 17.8659 20.167C17.9747 19.9905 18.0398 19.7907 18.056 19.584L19.1248 6.75H10.019C9.72565 6.74993 9.44026 6.84543 9.20601 7.02202C8.97177 7.19862 8.80142 7.44671 8.72075 7.72875Z" stroke="#FF67A6" stroke-width="4"/>
</svg>
