<svg width="45" height="45" viewBox="0 0 45 45" fill="none" xmlns="http://www.w3.org/2000/svg">
<path fill-rule="evenodd" clip-rule="evenodd" d="M19.7554 6.47036C20.5419 5.68315 21.5442 5.1469 22.6356 4.92946C23.7269 4.71202 24.8582 4.82314 25.8863 5.24879C26.9145 5.67443 27.7933 6.39546 28.4116 7.32066C29.0298 8.24586 29.3598 9.33366 29.3597 10.4464V12.5775H18.1097V10.4464C18.1097 8.955 18.7012 7.52143 19.7554 6.47036ZM13.2883 12.5775V10.4464C13.2883 7.67586 14.3889 5.01877 16.348 3.05969C18.3071 1.1006 20.9642 0 23.7347 0C26.5053 0 29.1624 1.1006 31.1215 3.05969C33.0806 5.01877 34.1812 7.67586 34.1812 10.4464V12.5775H39.8062C40.2013 12.5774 40.5827 12.7229 40.8773 12.9861C41.172 13.2494 41.3594 13.612 41.4037 14.0046L44.1262 38.4204L44.1551 38.6454C44.2194 39.1693 44.3351 40.0307 44.1615 40.8632C43.9763 41.7329 43.5572 42.5356 42.9494 43.1847C42.3417 43.8339 41.5683 44.3048 40.7126 44.5468C39.9251 44.7654 39.0315 44.7396 38.4883 44.7268L38.199 44.7204H9.27044L8.98115 44.7268C8.43472 44.7396 7.54115 44.7654 6.75687 44.5468C5.01472 44.0646 3.67437 42.6182 3.30794 40.8632C3.13437 40.0307 3.24365 39.1693 3.31437 38.6454L3.34329 38.4204L6.06579 14.0046C6.11005 13.612 6.29742 13.2494 6.59211 12.9861C6.88679 12.7229 7.26814 12.5774 7.66329 12.5775H13.2883Z" fill="#FF67A6"/>
</svg>
