<svg width="39" height="37" viewBox="0 0 39 37" fill="none" xmlns="http://www.w3.org/2000/svg">
<path d="M16.4216 1.71033C16.6748 1.19697 17.0666 0.76471 17.5526 0.462451C18.0387 0.160192 18.5997 0 19.1721 0C19.7444 0 20.3054 0.160192 20.7915 0.462451C21.2775 0.76471 21.6693 1.19697 21.9225 1.71033L26.1851 10.343L35.7148 11.7268C36.2813 11.8091 36.8135 12.0483 37.2511 12.4173C37.6887 12.7864 38.0143 13.2705 38.191 13.815C38.3677 14.3595 38.3885 14.9426 38.251 15.4983C38.1135 16.054 37.8232 16.5601 37.413 16.9593L30.5168 23.6792L32.146 33.1705C32.2429 33.7343 32.1802 34.3139 31.9649 34.8439C31.7497 35.374 31.3904 35.8332 30.9279 36.1698C30.4653 36.5063 29.9178 36.7068 29.3473 36.7485C28.7767 36.7902 28.2059 36.6715 27.6993 36.4058L19.1701 31.9208L10.6448 36.4058C10.1382 36.6715 9.56737 36.7902 8.99684 36.7485C8.42631 36.7068 7.87883 36.5063 7.41625 36.1698C6.95368 35.8332 6.59447 35.374 6.37921 34.8439C6.16396 34.3139 6.10124 33.7343 6.19814 33.1705L7.82348 23.6792L0.927311 16.9593C0.517005 16.5598 0.226762 16.0534 0.0894533 15.4974C-0.0478554 14.9415 -0.0267436 14.3581 0.150398 13.8136C0.327539 13.269 0.653632 12.7849 1.09175 12.4161C1.52986 12.0473 2.06249 11.8085 2.62931 11.7268L12.159 10.3468L16.4216 1.71033Z" fill="#FF67A6"/>
</svg>
