<svg width="50" height="50" viewBox="0 0 50 50" fill="none" xmlns="http://www.w3.org/2000/svg">
<path d="M18.75 8.33317V6.24984C18.75 5.6973 18.9695 5.1674 19.3602 4.7767C19.7509 4.386 20.2808 4.1665 20.8333 4.1665H29.1667C29.7192 4.1665 30.2491 4.386 30.6398 4.7767C31.0305 5.1674 31.25 5.6973 31.25 6.24984V8.33317H39.5833C40.6884 8.33317 41.7482 8.77216 42.5296 9.55356C43.311 10.335 43.75 11.3948 43.75 12.4998V14.5832C43.75 15.6882 43.311 16.748 42.5296 17.5295C41.7482 18.3109 40.6884 18.7498 39.5833 18.7498H39.3062L37.8896 39.9998C37.7839 41.5817 37.081 43.0642 35.9233 44.1473C34.7656 45.2304 33.2395 45.833 31.6542 45.8332H18.3875C16.8035 45.8331 15.2786 45.2317 14.1211 44.1503C12.9635 43.069 12.2598 41.5885 12.1521 40.0082L10.7021 18.7498H10.4167C9.3116 18.7498 8.25179 18.3109 7.47039 17.5295C6.68899 16.748 6.25 15.6882 6.25 14.5832V12.4998C6.25 11.3948 6.68899 10.335 7.47039 9.55356C8.25179 8.77216 9.3116 8.33317 10.4167 8.33317H18.75ZM39.5833 12.4998H10.4167V14.5832H39.5833V12.4998ZM14.8771 18.7498L16.3083 39.7248C16.3442 40.2517 16.5789 40.7453 16.9649 41.1058C17.3509 41.4663 17.8594 41.6667 18.3875 41.6665H31.6542C32.183 41.6666 32.692 41.4656 33.0781 41.1043C33.4642 40.7429 33.6984 40.2483 33.7333 39.7207L35.1292 18.7498H14.8771ZM20.8333 20.8332C21.3859 20.8332 21.9158 21.0527 22.3065 21.4434C22.6972 21.8341 22.9167 22.364 22.9167 22.9165V37.4998C22.9167 38.0524 22.6972 38.5823 22.3065 38.973C21.9158 39.3637 21.3859 39.5832 20.8333 39.5832C20.2808 39.5832 19.7509 39.3637 19.3602 38.973C18.9695 38.5823 18.75 38.0524 18.75 37.4998V22.9165C18.75 22.364 18.9695 21.8341 19.3602 21.4434C19.7509 21.0527 20.2808 20.8332 20.8333 20.8332ZM29.1667 20.8332C29.7192 20.8332 30.2491 21.0527 30.6398 21.4434C31.0305 21.8341 31.25 22.364 31.25 22.9165V37.4998C31.25 38.0524 31.0305 38.5823 30.6398 38.973C30.2491 39.3637 29.7192 39.5832 29.1667 39.5832C28.6141 39.5832 28.0842 39.3637 27.6935 38.973C27.3028 38.5823 27.0833 38.0524 27.0833 37.4998V22.9165C27.0833 22.364 27.3028 21.8341 27.6935 21.4434C28.0842 21.0527 28.6141 20.8332 29.1667 20.8332Z" fill="#FF67A6"/>
</svg>
