<svg width="50" height="50" viewBox="0 0 50 50" fill="none" xmlns="http://www.w3.org/2000/svg">
<path d="M25 6.25C29.4844 6.25 33.125 9.89062 33.125 14.375C33.125 18.8594 29.4844 22.5 25 22.5C20.5156 22.5 16.875 18.8594 16.875 14.375C16.875 9.89062 20.5156 6.25 25 6.25ZM7.5 11.875C10.6094 11.875 13.125 14.3906 13.125 17.5C13.125 20.6094 10.6094 23.125 7.5 23.125C4.39062 23.125 1.875 20.6094 1.875 17.5C1.875 14.3906 4.39062 11.875 7.5 11.875ZM0 37.5C0 31.9766 4.47656 27.5 10 27.5C11 27.5 11.9688 27.6484 12.8828 27.9219C10.3125 30.7969 8.75 34.5938 8.75 38.75V40C8.75 40.8906 8.9375 41.7344 9.27344 42.5H2.5C1.11719 42.5 0 41.3828 0 40V37.5ZM40.7266 42.5C41.0625 41.7344 41.25 40.8906 41.25 40V38.75C41.25 34.5938 39.6875 30.7969 37.1172 27.9219C38.0312 27.6484 39 27.5 40 27.5C45.5234 27.5 50 31.9766 50 37.5V40C50 41.3828 48.8828 42.5 47.5 42.5H40.7266ZM36.875 17.5C36.875 14.3906 39.3906 11.875 42.5 11.875C45.6094 11.875 48.125 14.3906 48.125 17.5C48.125 20.6094 45.6094 23.125 42.5 23.125C39.3906 23.125 36.875 20.6094 36.875 17.5ZM12.5 38.75C12.5 31.8438 18.0938 26.25 25 26.25C31.9062 26.25 37.5 31.8438 37.5 38.75V40C37.5 41.3828 36.3828 42.5 35 42.5H15C13.6172 42.5 12.5 41.3828 12.5 40V38.75Z" fill="#FF67A6"/>
</svg>
